<svg xmlns="http://www.w3.org/2000/svg" viewBox="0 0 1000 493"><defs><style>.cls-1{fill:none;stroke:#fff;stroke-miterlimit:10;stroke-width:3px}.cls-2{fill:#fff;stroke-width:0}</style></defs><g id="Layer_2"><path class="cls-1" d="M196.81 303.02h117.62M77.99 368.61h237.54M314.43 238.86h494.56M559.88 271.19h183.08M314.43 271.19H482.4M717.1 227.01l37.48 37.48M785.43 196.89v53.01M61.25 249.05c17.02 48.63 31.57 90.79 146.33 85.81h107.95"/><circle class="cls-2" cx="185.41" cy="300.23" r="22.17"/><circle class="cls-2" cx="53.8" cy="368.61" r="24.19"/><circle class="cls-2" cx="250.93" cy="334.86" r="15.82"/><circle class="cls-2" cx="482.4" cy="207" r="7.16"/><circle class="cls-2" cx="499.23" cy="199.14" r="3.92"/><circle class="cls-2" cx="516.37" cy="191.96" r="3.92"/><circle class="cls-2" cx="534.59" cy="186.17" r="3.92"/><circle class="cls-2" cx="552.76" cy="182.25" r="3.92"/><circle class="cls-2" cx="570.95" cy="180.2" r="3.92"/><circle class="cls-2" cx="589.41" cy="179.73" r="3.92"/><circle class="cls-2" cx="608.12" cy="180.2" r="3.92"/><circle class="cls-2" cx="626.33" cy="182.3" r="3.92"/><circle class="cls-2" cx="644.03" cy="186.22" r="3.92"/><circle class="cls-2" cx="661.44" cy="192.07" r="3.92"/><circle class="cls-2" cx="678.35" cy="198.76" r="3.92"/><circle class="cls-2" cx="694.22" cy="207.28" r="3.92"/><circle class="cls-2" cx="709.47" cy="216.4" r="3.92"/><circle class="cls-2" cx="728.49" cy="236.99" r="15.83"/><circle class="cls-2" cx="57.88" cy="233.36" r="16.04"/><circle class="cls-2" cx="785.61" cy="184.47" r="20.42"/></g><g id="Layer_3"><path class="cls-2" d="m279.84 376.66 24.77-145.91h37.54l29.22 77.79 29.03-77.79h37.54l24.77 145.91h-37.73l-12.58-83.98-34.45 83.98h-15.09l-32.7-83.98-12.58 83.98h-37.73ZM467.35 230.75h56.5c13.42 0 23.61 3.23 30.58 9.68 6.97 6.45 10.45 15.74 10.45 27.87 0 7.35-1.32 13.45-3.97 18.29-2.65 4.84-6.68 8.93-12.09 12.29 5.42 1.03 10.03 2.61 13.84 4.74 3.8 2.13 6.9 4.74 9.29 7.84 2.39 3.1 4.09 6.58 5.13 10.45 1.03 3.87 1.55 8 1.55 12.38 0 6.84-1.19 12.9-3.58 18.19-2.39 5.29-5.74 9.74-10.06 13.35-4.32 3.61-9.58 6.32-15.77 8.13-6.19 1.81-13.16 2.71-20.9 2.71h-60.96V230.76Zm37.93 57.28h6.97c11.87 0 17.8-4.71 17.8-14.13s-5.94-14.13-17.8-14.13h-6.97v28.25Zm0 59.21h8.32c9.55 0 16.38-1.22 20.51-3.68 4.13-2.45 6.19-6.39 6.19-11.8s-2.06-9.35-6.19-11.8c-4.13-2.45-10.97-3.68-20.51-3.68h-8.32v30.96ZM673.05 351.31h-54.18l-8.71 25.35h-40.44l55.54-145.91h41.41l55.54 145.91h-40.44l-8.71-25.35Zm-10.06-28.83-17.03-48.57-17.03 48.57h34.06ZM848.56 376.66h-47.22l-36.19-56.12v56.12h-37.93V230.75h59.02c8.13 0 15.22 1.19 21.29 3.58 6.06 2.39 11.06 5.65 15 9.77 3.93 4.13 6.9 8.9 8.9 14.32s3 11.22 3 17.42c0 11.1-2.68 20.09-8.03 26.99-5.35 6.9-13.25 11.58-23.71 14.03l45.86 59.79Zm-83.4-80.69h7.16c7.48 0 13.22-1.55 17.22-4.64 4-3.1 6-7.55 6-13.35s-2-10.26-6-13.35c-4-3.1-9.74-4.64-17.22-4.64h-7.16v35.99Z"/></g></svg>